<svg width="14" height="16" viewBox="0 0 14 16" fill="none" xmlns="http://www.w3.org/2000/svg">
<circle cx="7" cy="7" r="7" fill="white"/>
<path d="M9.867 10.39C10.0537 10.39 10.2007 10.4437 10.308 10.551C10.42 10.6537 10.476 10.7913 10.476 10.964V12H3.532V11.426C3.532 11.3093 3.55533 11.188 3.602 11.062C3.65333 10.9313 3.73267 10.8147 3.84 10.712L6.913 7.632C7.16967 7.37067 7.39833 7.121 7.599 6.883C7.80433 6.645 7.97467 6.40933 8.11 6.176C8.24533 5.94267 8.348 5.707 8.418 5.469C8.49267 5.22633 8.53 4.972 8.53 4.706C8.53 4.46333 8.495 4.251 8.425 4.069C8.355 3.88233 8.25467 3.726 8.124 3.6C7.998 3.474 7.844 3.38067 7.662 3.32C7.48467 3.25467 7.284 3.222 7.06 3.222C6.85467 3.222 6.66333 3.25233 6.486 3.313C6.31333 3.369 6.15933 3.45067 6.024 3.558C5.88867 3.66067 5.77433 3.782 5.681 3.922C5.58767 4.062 5.51767 4.216 5.471 4.384C5.39167 4.59867 5.289 4.741 5.163 4.811C5.037 4.881 4.855 4.89733 4.617 4.86L3.707 4.699C3.777 4.21367 3.91233 3.789 4.113 3.425C4.31367 3.05633 4.56333 2.75067 4.862 2.508C5.16533 2.26067 5.51067 2.07633 5.898 1.955C6.29 1.829 6.71 1.766 7.158 1.766C7.62467 1.766 8.05167 1.836 8.439 1.976C8.82633 2.11133 9.15767 2.305 9.433 2.557C9.70833 2.809 9.923 3.11233 10.077 3.467C10.231 3.82167 10.308 4.216 10.308 4.65C10.308 5.02333 10.252 5.36867 10.14 5.686C10.0327 6.00333 9.88567 6.30667 9.699 6.596C9.517 6.88533 9.30233 7.16533 9.055 7.436C8.80767 7.70667 8.54867 7.982 8.278 8.262L5.996 10.593C6.21533 10.5277 6.43233 10.4787 6.647 10.446C6.86633 10.4087 7.074 10.39 7.27 10.39H9.867Z" fill="#3670C7"/>
</svg>
